<?xml version="1.0" encoding="utf-8"?>
<!-- Generator: Adobe Illustrator 19.0.0, SVG Export Plug-In . SVG Version: 6.00 Build 0)  -->
<svg version="1.1" id="Layer_1" xmlns="http://www.w3.org/2000/svg" xmlns:xlink="http://www.w3.org/1999/xlink" x="0px" y="0px"
	 viewBox="0 0 725 140" style="enable-background:new 0 0 725 140;" xml:space="preserve">
<style type="text/css">
	.st0{fill:none;stroke:#000000;stroke-width:6;stroke-miterlimit:10;}
</style>
<g id="XMLID_2_">
	<path id="XMLID_5_" d="M267.899,84.099c0,3-2.601,6.1-6.301,6.1c-3.3,0-6-3.1-6-6.1c0-3.7,2.7-6.2,6-6.2
		C265.299,77.898,267.899,80.398,267.899,84.099z"/>
	<path id="XMLID_7_" d="M298.499,19.895c15.101,0,22.702,11.701,22.702,23.401s-7.601,23.302-22.702,23.302h-15.401v23.301h-10.201
		V19.895H298.499z M298.499,56.597c8.5,0,12.701-6.6,12.701-13.201c0-6.7-4.201-13.301-12.701-13.301h-15.401v26.501H298.499z"/>
	<path id="XMLID_10_" d="M335.797,49.497h29.602V19.995h10.2v69.904h-10.2V59.497h-29.602v30.402h-10.101V19.995h10.101V49.497z"/>
	<path id="XMLID_12_" d="M407.298,19.995c22.901,0,34.402,17.501,34.402,35.002c0,17.501-11.501,34.902-34.402,34.902h-25.102
		V19.995H407.298z M407.298,79.798c16.201,0,24.401-12.401,24.401-24.802c0-12.4-8.2-24.901-24.401-24.901h-15.001v49.703H407.298z"
		/>
	<path id="XMLID_15_" d="M233.142,99.896c3.021,0,4.541,2.34,4.541,4.681c0,2.34-1.52,4.661-4.541,4.661h-3.081v4.661h-2.04V99.896
		H233.142z M233.142,107.237c1.7,0,2.541-1.32,2.541-2.64c0-1.34-0.84-2.661-2.541-2.661h-3.081v5.301H233.142z"/>
	<path id="XMLID_18_" d="M244.762,101.917h-2.601v9.962h2.601v2.021h-7.222v-2.021h2.601v-9.962h-2.601v-2h7.222V101.917z"/>
	<path id="XMLID_20_" d="M246.861,101.836c1.28-1.3,3.081-2.121,5.041-2.121c1.98,0,3.761,0.82,5.061,2.121
		c1.26,1.3,2.081,3.081,2.081,5.061s-0.82,3.761-2.081,5.061c-1.3,1.32-3.081,2.121-5.061,2.121c-1.96,0-3.761-0.8-5.041-2.121
		c-1.26-1.3-2.081-3.081-2.081-5.061S245.601,103.137,246.861,101.836z M255.522,103.277c-0.94-0.94-2.24-1.521-3.621-1.521
		s-2.661,0.58-3.581,1.521c-0.92,0.92-1.5,2.2-1.5,3.621s0.58,2.701,1.5,3.621c0.92,0.94,2.2,1.521,3.581,1.521
		s2.681-0.58,3.621-1.521c0.9-0.92,1.48-2.18,1.48-3.621S256.423,104.197,255.522,103.277z"/>
	<path id="XMLID_23_" d="M262.561,113.959v-12.022h-4.241v-2.041h10.482v2.041h-4.221v12.022H262.561z"/>
	<path id="XMLID_25_" d="M272.48,106.797h2.36c1.701,0,2.541-1.22,2.541-2.44c0-1.2-0.84-2.42-2.541-2.42h-3.101v11.962h-2V99.896
		h5.101c3.041,0,4.561,2.24,4.561,4.461c0,1.98-1.22,3.861-3.621,4.281l4.421,5.261h-2.621l-5.101-6.141V106.797z"/>
	<path id="XMLID_27_" d="M289.3,105.817h5.921v-5.901h2.041v13.983h-2.041v-6.082H289.3v6.082h-2.02V99.916h2.02V105.817z"/>
	<path id="XMLID_29_" d="M306.261,109.778h-5.021c-0.54,1.28-1.24,2.961-1.68,4.121h-2.181l5.622-14.183h1.48l5.621,14.183h-2.16
		L306.261,109.778z M302,107.877h3.481l-1.721-4.941L302,107.877z"/>
	<path id="XMLID_32_" d="M316.682,107.237c-0.8,2.281-1.661,4.661-2.381,6.782h-1.5l-4.661-14.103h2.101l3.34,10.102l2.301-6.542
		h1.62l2.281,6.521c1.1-3.341,2.32-6.901,3.36-10.082h2.121l-4.661,14.103h-1.5L316.682,107.237z"/>
	<path id="XMLID_34_" d="M328.84,106.797h2.361c1.7,0,2.541-1.22,2.541-2.44c0-1.2-0.84-2.42-2.541-2.42H328.1v11.962h-2V99.896
		h5.102c3.041,0,4.561,2.24,4.561,4.461c0,1.98-1.22,3.861-3.621,4.281l4.421,5.261h-2.621l-5.101-6.141V106.797z"/>
	<path id="XMLID_36_" d="M337.26,99.916l3.821,6.141l3.821-6.141h2.4l-5.201,8.282v5.701h-2.041v-5.701l-5.181-8.282H337.26z"/>
	<path id="XMLID_38_" d="M354.762,103.517c-0.28-1.26-1.641-1.8-2.861-1.78c-0.939,0.02-1.98,0.34-2.54,1.06
		c-0.28,0.36-0.38,0.82-0.34,1.3c0.1,1.44,1.681,1.621,3.181,1.761c1.92,0.24,4.301,0.74,4.841,2.98c0.06,0.3,0.101,0.64,0.101,0.92
		c0,2.701-2.682,4.261-5.201,4.261c-2.161,0-4.781-1.28-5.041-3.781l-0.021-0.38l2.04-0.04l0.021,0.3v-0.08
		c0.14,1.3,1.72,1.98,3.021,1.98c1.5,0,3.141-0.84,3.141-2.28c0-0.14-0.02-0.3-0.061-0.48c-0.239-1.06-1.68-1.24-3.08-1.38
		c-2.181-0.22-4.741-0.7-4.961-3.621v0.02c-0.08-0.94,0.16-1.88,0.76-2.661c0.94-1.22,2.621-1.86,4.241-1.86
		c2.16,0,4.401,1.12,4.761,3.681L354.762,103.517z"/>
	<path id="XMLID_40_" d="M357.899,99.916h9.481l0.681,1.28l-7.922,10.902h7.802v1.8h-9.822l-0.82-1.12l8.082-11.022h-7.481V99.916z"
		/>
	<path id="XMLID_42_" d="M370.879,99.916v13.983h-2V99.916H370.879z M371.26,106.397l4.881-6.481h2.541l-5.342,6.941l5.901,7.042
		h-2.641l-5.341-6.481V106.397z"/>
	<path id="XMLID_45_" d="M380.459,101.836c1.28-1.3,3.081-2.121,5.041-2.121c1.98,0,3.762,0.82,5.062,2.121
		c1.261,1.3,2.08,3.081,2.08,5.061s-0.819,3.761-2.08,5.061c-1.3,1.32-3.081,2.121-5.062,2.121c-1.96,0-3.761-0.8-5.041-2.121
		c-1.26-1.3-2.08-3.081-2.08-5.061S379.199,103.137,380.459,101.836z M389.121,103.277c-0.94-0.94-2.24-1.521-3.621-1.521
		c-1.38,0-2.66,0.58-3.58,1.521c-0.921,0.92-1.501,2.2-1.501,3.621s0.58,2.701,1.501,3.621c0.92,0.94,2.2,1.521,3.58,1.521
		c1.381,0,2.681-0.58,3.621-1.521c0.9-0.92,1.48-2.18,1.48-3.621S390.021,104.197,389.121,103.277z"/>
	<path id="XMLID_48_" d="M405.98,99.916c4.581,0,6.881,3.5,6.881,7.001c0,3.5-2.3,6.981-6.881,6.981h-5.021V99.916H405.98z
		 M405.98,111.878c3.24,0,4.881-2.48,4.881-4.961s-1.641-4.981-4.881-4.981h-3.001v9.942H405.98z"/>
	<path id="XMLID_51_" d="M415.919,111.878h6.502v2.021h-8.542V99.916h8.521v2.021h-6.481v3.941h6.342v2.04h-6.342V111.878z"/>
	<path id="XMLID_53_" d="M430.96,103.517c-0.28-1.26-1.641-1.8-2.86-1.78c-0.94,0.02-1.98,0.34-2.541,1.06
		c-0.28,0.36-0.38,0.82-0.34,1.3c0.1,1.44,1.68,1.621,3.181,1.761c1.92,0.24,4.301,0.74,4.841,2.98c0.06,0.3,0.1,0.64,0.1,0.92
		c0,2.701-2.68,4.261-5.201,4.261c-2.16,0-4.78-1.28-5.041-3.781l-0.02-0.38l2.04-0.04l0.021,0.3v-0.08
		c0.14,1.3,1.72,1.98,3.021,1.98c1.5,0,3.141-0.84,3.141-2.28c0-0.14-0.02-0.3-0.06-0.48c-0.24-1.06-1.681-1.24-3.081-1.38
		c-2.181-0.22-4.741-0.7-4.961-3.621v0.02c-0.08-0.94,0.16-1.88,0.76-2.661c0.94-1.22,2.621-1.86,4.241-1.86
		c2.16,0,4.4,1.12,4.761,3.681L430.96,103.517z"/>
	<path id="XMLID_55_" d="M440.76,101.917h-2.601v9.962h2.601v2.021h-7.222v-2.021h2.601v-9.962h-2.601v-2h7.222V101.917z"/>
	<path id="XMLID_57_" d="M452.261,104.917c-0.56-2.26-2.721-3.081-4.501-3.081c-2.74,0-4.861,2.14-4.861,5.081
		c0,2.96,2.121,5.141,4.861,5.141c1.721,0,3.561-0.8,4.401-2.841h-5.182v-2.021h7.542c-0.101,1.181-0.2,1.96-0.38,2.421v-0.02
		c-0.961,2.681-3.841,4.401-6.382,4.401c-3.921,0-6.882-2.961-6.882-7.082c0-4.141,3.021-7.102,6.882-7.102
		c2.681,0,5.921,1.38,6.661,5.101H452.261z"/>
	<path id="XMLID_59_" d="M455.639,113.899V99.876l1.561,0.02l6.821,9.862v-9.862h2v14.003h-1.601l-6.761-9.782v9.782H455.639z"/>
</g>
<rect id="XMLID_3_" x="3" y="3" class="st0" width="719" height="134"/>
</svg>
